<?xml version="1.0" encoding="utf-8"?>
<!-- Generator: Adobe Illustrator 21.0.2, SVG Export Plug-In . SVG Version: 6.00 Build 0)  -->
<svg version="1.1" id="Слой_1" xmlns="http://www.w3.org/2000/svg" xmlns:xlink="http://www.w3.org/1999/xlink" x="0px" y="0px"
	 viewBox="0 0 957.2 980" style="enable-background:new 0 0 957.2 980;" xml:space="preserve">
<style type="text/css">
	.st0{fill:#FFFFFF;}
</style>
<g>
	<path class="st0" d="M342.8,293c14.6-14.4,13.2-36.5,0.2-49.9v-0.2L163.9,61c-13.7-13.9-36-13.9-49.7-0.7l-63.8,62.2L278.9,355
		L342.8,293L342.8,293z M240.2,707.8c333.4,347.6,550.2,277.6,587.5,239.8L604.9,720.8c-31.5,30.5-71.8,2.3-148.9-61.7
		c-1.2-0.5-159.5-160.9-160.4-163.2c-35.6-44.7-67-91.6-34.2-123.7L32.8,139.9C-0.9,180.8-76.4,378,240.2,707.8L240.2,707.8z
		 M909.1,868.9c14.6-14.3,13.4-36.7,0.2-50.1L735.5,642.2c-13.9-14.1-36-14.1-49.9-0.7l-63.8,62.2l223.5,227.5L909.1,868.9
		L909.1,868.9z M580.5,66.9c15-2.7,30.3-4.3,45.8-4.3l3.9-1.1l0.5,1.1c63.1,0.5,126.5,23.9,176.9,70.4
		c66.1,60.9,94.1,147.7,82.5,229.8c4.1,12.8,11.6,21.4,23.2,22.6c37.6,3.7,38.3-16.9,43.8-46.7c2.7-91.6-33.5-183.9-106.5-251.2
		c-80.5-74.1-188.1-100.8-287-81.4c-13.4,5.5-20.7,14.6-17.1,38.1C548.8,58.1,562.3,65.1,580.5,66.9L580.5,66.9z M530.3,211.9
		c15.3-3,30.8-4.3,46.3-4.5l4.1-1.2l0.2,1.2c63.8,0.5,79.3,10.5,113.3,45.6c45.6,46.9,63.6,85.9,51,168.9
		c4.1,12.8,11.6,21.4,23.3,22.6c37.8,3.9,38.8-16.9,44.7-47.2c3.4-92.3-31.7-146.5-75-190.8C690.4,158,613.5,130,513.5,150
		c-13.7,5.7-21,15.1-17.3,38.8C498.4,203.1,512.1,210.1,530.3,211.9L530.3,211.9z"/>
</g>
</svg>
