<?xml version="1.0" encoding="utf-8"?>
<!-- Generator: Adobe Illustrator 21.0.2, SVG Export Plug-In . SVG Version: 6.00 Build 0)  -->
<svg version="1.1" id="Слой_1" xmlns="http://www.w3.org/2000/svg" xmlns:xlink="http://www.w3.org/1999/xlink" x="0px" y="0px"
	 viewBox="0 0 1240 980" style="enable-background:new 0 0 1240 980;" xml:space="preserve">
<style type="text/css">
	.st0{fill:#FFFFFF;}
</style>
<g>
	<path class="st0" d="M177.1,0h885.6c41.9,0,79.7,15.1,109.9,39.3L775.5,453.4c-2.2,2.5-54.9,60.9-154.6,60.9V514
		c-99.9,0-152.5-58.3-155.6-61.9L68.1,38.2C98.4,14.5,135.9,0,177.1,0z M0,802.9V177c0-35.8,10.8-69,29-96.8l376.6,392.7L30.1,901.6
		C10.9,873.3,0,839.4,0,802.9z M1062.7,980H177.1c-40.6,0-77.4-14-107-36.9l377-430.4c30.2,23.9,88.3,58.7,174,58.7v0.3
		c85.8,0,144.1-35,173.7-58.6L1171,942.3C1141.1,965.6,1103.9,980,1062.7,980z M1239.9,802.9c0,36.1-10.8,69.6-29.5,97.5
		L836.1,473.2l375.6-391.6c17.7,27.6,28.2,60.2,28.2,95.4L1239.9,802.9L1239.9,802.9L1239.9,802.9z"/>
</g>
</svg>
