<?xml version="1.0" encoding="utf-8"?>
<!-- Generator: Adobe Illustrator 21.0.2, SVG Export Plug-In . SVG Version: 6.00 Build 0)  -->
<svg version="1.1" id="Слой_1" xmlns="http://www.w3.org/2000/svg" xmlns:xlink="http://www.w3.org/1999/xlink" x="0px" y="0px"
	 viewBox="0 0 576.6 980" style="enable-background:new 0 0 576.6 980;" xml:space="preserve">
<style type="text/css">
	.st0{fill:#FFFFFF;}
</style>
<g>
	<g>
		<path class="st0" d="M295.8,878.4c-1.5-0.6-3.3,0.1-3.9,1.7c-0.6,1.6,0.1,3.3,1.7,3.9c5.6,2.2,9.2,7.5,9.2,13.5
			c0,8-6.5,14.4-14.4,14.4c-8,0-14.4-6.5-14.4-14.5c0-5.8,3.5-11,8.8-13.3c1.5-0.7,2.3-2.4,1.6-4c-0.7-1.5-2.4-2.3-4-1.6
			c-7.6,3.2-12.5,10.6-12.5,18.9c0,11.3,9.2,20.5,20.5,20.5s20.5-9.2,20.5-20.5C308.8,889,303.7,881.5,295.8,878.4z"/>
		<path class="st0" d="M288.3,901.1c1.7,0,3-1.3,3-3v-8c0-1.7-1.4-3-3-3c-1.7,0-3,1.3-3,3v8C285.3,899.8,286.6,901.1,288.3,901.1z"
			/>
		<path class="st0" d="M510.5,0H66.1C29.6,0,0,29.6,0,66.1v847.8C0,950.4,29.6,980,66.1,980h444.4c36.5,0,66.1-29.6,66.1-66.1V66.1
			C576.6,29.6,547,0,510.5,0z M458.9,57.8c6.4,0,11.6,5.2,11.6,11.6S465.3,81,458.9,81s-11.7-5.2-11.7-11.6S452.5,57.8,458.9,57.8z
			 M207.4,61.2h161.7c4.5,0,8.2,3.7,8.2,8.2s-3.7,8.2-8.2,8.2H207.4c-4.5,0-8.2-3.7-8.2-8.2S202.9,61.2,207.4,61.2z M101.2,61.2
			h53.4c4.5,0,8.2,3.7,8.2,8.2s-3.7,8.2-8.2,8.2h-53.4c-4.5,0-8.2-3.7-8.2-8.2S96.7,61.2,101.2,61.2z M287.2,939.6
			c-23,0-41.6-18.6-41.6-41.6s18.6-41.6,41.6-41.6c22.9,0,41.6,18.6,41.6,41.6S310.1,939.6,287.2,939.6z M487.4,779.9
			c0,10-8.1,18.2-18.2,18.2H107.4c-10.1,0-18.2-8.1-18.2-18.2V127.3c0-10,8.1-18.2,18.2-18.2h361.8c10.1,0,18.2,8.1,18.2,18.2V779.9
			L487.4,779.9z"/>
	</g>
</g>
</svg>
