<?xml version="1.0" encoding="utf-8"?>
<!-- Generator: Adobe Illustrator 21.0.2, SVG Export Plug-In . SVG Version: 6.00 Build 0)  -->
<svg version="1.1" id="Capa_1" xmlns="http://www.w3.org/2000/svg" xmlns:xlink="http://www.w3.org/1999/xlink" x="0px" y="0px"
	 viewBox="0 0 47 43.4" style="enable-background:new 0 0 47 43.4;" xml:space="preserve">
<style type="text/css">
	.st0{fill:#0079D5;}
</style>
<g>
	<g id="Layer_1_65_">
		<g>
			<path class="st0" d="M46.9,18.3c-0.2-0.3-0.5-0.6-0.9-0.6h-2.9C41.2,7.7,32.4,0,21.7,0C9.7,0,0,9.7,0,21.7s9.7,21.7,21.7,21.7
				c7.7,0,14.9-4.2,18.8-10.9c0.5-0.9,0.2-2.2-0.7-2.7s-2.2-0.2-2.7,0.7c-3.2,5.5-9.1,8.9-15.4,8.9c-9.8,0-17.8-8-17.8-17.8
				s8-17.8,17.8-17.8c8.4,0,15.5,5.9,17.3,13.8h-2.9c-0.4,0-0.7,0.2-0.9,0.6c-0.2,0.3-0.1,0.8,0.1,1.1l4.9,5.9
				c0.2,0.2,0.5,0.4,0.8,0.4s0.6-0.1,0.8-0.4l4.9-5.9C47,19.1,47.1,18.7,46.9,18.3z"/>
			<path class="st0" d="M21.7,4.9c-1.1,0-2,0.9-2,2v12c-0.9,0.6-1.5,1.7-1.5,2.8c0,1.9,1.6,3.5,3.5,3.5c0.5,0,1-0.1,1.5-0.3l6.9,4
				c0.3,0.2,0.6,0.3,1,0.3c0.7,0,1.3-0.4,1.7-1c0.5-0.9,0.2-2.2-0.7-2.7l-6.9-4c-0.1-1-0.6-2-1.4-2.5V7C23.7,5.8,22.8,4.9,21.7,4.9z
				 M21.7,23.2c-0.8,0-1.5-0.7-1.5-1.5s0.7-1.5,1.5-1.5s1.5,0.7,1.5,1.5S22.5,23.2,21.7,23.2z"/>
		</g>
	</g>
</g>
</svg>
