<?xml version="1.0" encoding="utf-8"?>
<!-- Generator: Adobe Illustrator 21.0.2, SVG Export Plug-In . SVG Version: 6.00 Build 0)  -->
<svg version="1.1" id="Слой_1" xmlns="http://www.w3.org/2000/svg" xmlns:xlink="http://www.w3.org/1999/xlink" x="0px" y="0px"
	 viewBox="0 0 290 257" style="enable-background:new 0 0 290 257;" xml:space="preserve">
<style type="text/css">
	.st0{fill:#0079D5;}
</style>
<g>
	<g>
		<path class="st0" d="M0,189c4.5-12,14.8-16,25.9-19c4.9-1.3,9.8-2.6,14.5-4.2c6.3-2.2,7.6-6.3,4.6-12.1c-4.3-8.4-8.2-17-12.3-25.5
			c-0.5-1-0.8-2.2-0.7-3.3c0.6-7.5,1-15.1,2.1-22.6c1.1-8,9.5-16.2,18.1-17.1c6.9-0.7,14.1-1.4,20.9,2.5c-12.2,30.3-9,58.6,10.7,85
			c-9.5,9.7-10.3,21.7-7.7,34.2c0.9,4.3,4.1,6.8,7.9,8.7c1.7,0.9,3.2,2.1,5.5,3.5c-2.6,0.7-4.6,1.6-6.7,1.8
			C57.1,223.4,32,221.6,8.5,210c-3.2-1.6-5.7-4.6-8.5-7C0,198.3,0,193.7,0,189z"/>
		<path class="st0" d="M291,202c-2.1,5-6.3,7.8-11.1,9.4c-1.8,0.6-5-0.2-6.4-1.6c-13.7-13.6-26.8-27.7-40.7-41
			c-4.4-4.2-10.6-6.3-16.6-9.7c11.2-23.5,12.1-48.4,0.4-73.3c12.5-3.7,22.3,2.1,32.2,6.8c5.7,2.7,7.4,9.1,8.2,15
			c0.8,6.4,0.8,12.8,1.1,19.3c0,1,0.1,2.1-0.3,2.9c-3.8,8.4-7.7,16.8-11.6,25.1c-2.6,5.4-1.5,8.3,4.3,10.2c6.5,2.1,13,4.2,19.6,5.9
			c10.4,2.7,18,8.4,21.1,19.1C291,194,291,198,291,202z"/>
		<path class="st0" d="M259,258c-5.9-5.1-12.1-9.9-17.7-15.3c-5.8-5.6-11.1-11.8-16.8-17.6c-8-8.2-16.7-15.8-24.1-24.6
			c-3.5-4.2-5.1-10.3-6.8-15.7c-0.8-2.6,14.4-17.2,17.1-16.6c6.1,1.3,12.4,2.1,17.3,7.2c13.1,13.5,26.6,26.6,39.8,40
			c4.2,4.2,8.2,8.6,12.1,13.1c4.4,5,4.4,11.7-0.3,16.4c-4.6,4.6-9.7,8.8-14.6,13.2C263,258,261,258,259,258z"/>
		<path class="st0" d="M107,0c4,1.6,7.9,3.7,12,4.9c8.7,2.5,13.3,8.5,14.8,16.9c1,5.6,1.1,11.5,1.1,17.2c0,1.3-1.9,3.6-3.2,3.8
			c-17.2,3-31.6,11-43.6,23.6c-0.6,0.6-1.2,1.1-2.4,2.1c-1.3-2.9-2.3-5.5-3.6-8.1c-2.3-4.6-4.6-9.2-7-13.8
			c-1.8-3.4-2.7-6.4-1.1-10.5c1.5-3.8,0.9-8.4,0.9-12.7c0-7.4,2.8-13.6,8.4-18.1c3-2.4,7-3.6,10.6-5.3C98.3,0,102.7,0,107,0z"/>
		<path class="st0" d="M188,0c4.9,2,9.7,4.1,14.7,5.9c7.1,2.6,11.8,8.7,12.3,16c0.4,5.5,1.5,11,1.8,16.6c0.2,2.4-0.4,4.9-1.2,7.1
			c-2.7,7.1-5.8,14-8.7,21c-0.3,0.7-0.7,1.4-0.8,1.4c-8-5.8-15.4-12.4-23.9-17c-8.3-4.5-17.7-6.9-26.6-10.2c0.6-7.5,0.6-15.8,2-23.9
			C159.5,7.2,167.4,3,176,0C180,0,184,0,188,0z"/>
		<path class="st0" d="M145,193c-38.2,1.2-71.9-32.3-70.9-72.8c0.9-37.4,31.1-72.4,75.2-70.1c36.5,1.9,67.5,31.4,67.5,71.5
			C216.8,160.6,185.6,193.8,145,193z M206,122.1c1.5-34-27.6-61.5-58.4-62.1c-36.8-0.7-63.3,28.4-63.4,61.2
			c-0.1,33.9,26.7,60.7,59.2,61.9C178.3,184.3,207.6,154.2,206,122.1z"/>
		<path class="st0" d="M88.4,178.3c30.7,26.6,62.9,30.3,98.3,12.4c0.3,8.9,5.7,14.5,12.5,20.8c-6.9,2.3-12.8,5.2-19,6.2
			c-12.1,2-24.4,4-36.6,4c-18.2-0.1-36-3.8-52.6-11.7c-6.6-3.2-8.7-6.9-7.7-16.8C83.7,188.2,86.5,183.6,88.4,178.3z"/>
		<path class="st0" d="M172,167.4c-16.7,11.2-45.9,8.5-50.9-0.7c1.7-0.8,3.6-1.4,5.2-2.5c3.1-2.1,4.8-4.6,2.7-8.6
			c-4.3-8.2-8.5-16.5-12.5-24.8c-1.6-3.4-1.8-6.4-0.1-10.5c1.7-4,0.7-9.1,0.7-13.8c0-8.7,3.5-15.1,11.6-18.8
			c9.7-4.5,19.3-3.7,29,0.4c6.5,2.8,13.3,5.3,15.9,12.8c0.8,2.4,1.2,5.1,1.5,7.6c0.7,5,1.6,10,1.8,15.1c0.1,2.6-0.9,5.4-1.9,7.8
			c-1.6,3.7-3.8,7.1-5.5,10.8c-2,4.4-3.8,8.9-5.6,13.4c-1.1,2.8-2.1,5.6,1.7,7.5C167.7,164.3,169.6,165.9,172,167.4z"/>
	</g>
</g>
</svg>
