<?xml version="1.0" encoding="utf-8"?>
<!-- Generator: Adobe Illustrator 21.0.2, SVG Export Plug-In . SVG Version: 6.00 Build 0)  -->
<svg version="1.1" id="Слой_1" xmlns="http://www.w3.org/2000/svg" xmlns:xlink="http://www.w3.org/1999/xlink" x="0px" y="0px"
	 viewBox="0 0 980 978.3" style="enable-background:new 0 0 980 978.3;" xml:space="preserve">
<style type="text/css">
	.st0{fill:#0079D5;}
</style>
<g>
	<g transform="translate(0.000000,503.000000) scale(0.100000,-0.100000)">
		<path class="st0" d="M4840.7,5030c-382-60.4-783.5-253.3-1085.5-526.2c-257.2-230-497-635.3-592.5-1003.7
			c-44.8-165.7-52.6-237.8-52.6-477.5c0-155.9,7.8-321.6,21.4-370.3c11.7-46.8,19.5-87.7,17.5-91.6c-2-1.9-87.7-33.1-189.1-68.2
			l-185-66.2l-263.1,95.5c-498.9,181.3-875,257.3-1208.3,243.6c-181.2-5.8-196.8-9.7-253.3-64.3c-122.8-116.9-95.5-267,68.2-372.2
			c175.4-111.1,243.6-216.3,391.7-608l83.8-222.2l-136.4-167.6c-218.3-269-368.3-631.4-417.1-1007.6
			c-23.4-175.4-11.7-165.7-202.7-165.7c-348.8,0-582.7-134.5-723-415.1C9.5-469.7-6.1-594.4,1.7-1210.3
			c7.8-518.4,9.7-559.3,54.6-684c116.9-339.1,356.6-526.2,705.5-553.5l144.2-11.7l111.1-216.3c62.4-118.9,171.5-294.3,243.6-389.8
			c72.1-93.5,138.4-183.2,148.1-196.8c11.7-15.6-23.4-128.6-107.2-333.3c-109.1-274.8-124.7-327.4-130.6-465.8
			c-13.6-282.6,111.1-495,362.5-617.8l130.6-64.3l643.1-5.8c426.8-3.9,666.5,0,715.2,15.6c107.2,31.2,181.2,103.3,230,226.1
			c40.9,99.4,48.7,107.2,95.5,97.4c27.3-5.8,148.1-33.1,265-60.4c491.1-113,711.3-134.5,1364.2-136.4c489.2,0,647,5.8,828.3,35.1
			c194.9,31.2,487.2,91.6,588.6,122.8c23.4,5.9,40.9-9.7,64.3-58.5c44.8-93.5,165.7-198.8,257.3-224.1
			c44.8-13.6,302.1-21.4,643.1-21.4c500.9,0,580.8,3.9,686,37c267,81.8,461.9,315.7,498.9,596.3c15.6,124.7-7.8,226.1-130.6,573
			c-62.4,177.3-93.5,290.4-81.9,304c9.7,11.7,78,111.1,150.1,220.2c300.1,448.2,467.7,951.1,498.9,1502.6l11.7,220.2l109.1,33.1
			C9371.8-1183,9592-988.1,9716.8-727c64.3,136.4,72.1,167.6,79.9,356.6c7.8,183.2,3.9,222.2-39,345
			c-27.3,76-79.9,187.1-118.9,245.6c-46.8,70.1-72.1,130.6-72.1,173.4c0,95.5-33.1,284.5-70.1,403.4
			c-52.6,167.6-175.4,226.1-288.4,138.4c-60.4-46.8-66.3-124.7-21.4-251.4c15.6-46.8,25.3-87.7,21.4-91.6
			c-3.9-5.8-54.6,5.8-111.1,21.4c-60.4,19.5-175.4,31.2-282.6,31.2h-181.3l-128.6,249.4c-280.6,545.7-709.4,1017.3-1218,1344.7
			c-91.6,58.5-171.5,113-181.2,120.8c-7.8,5.8,5.8,91.6,29.2,187.1c37,144.2,42.9,224.1,42.9,475.5c-2,261.1-7.8,327.4-50.7,489.2
			c-194.9,723-758.1,1288.2-1469.4,1471.4C5439,5037.8,5045.3,5061.2,4840.7,5030z M5600.7,4661.7
			c497-148.1,884.8-479.4,1099.2-941.3c122.8-261.2,146.2-374.2,148.1-707.4c0-247.5-5.8-315.7-44.8-448.2
			c-58.5-206.6-175.4-438.5-304-602.2c-97.4-124.7-103.3-138.4-87.7-204.6c25.4-113,144.2-175.4,230-120.8
			c35.1,23.4,276.7-136.4,424.8-280.6c122.8-118.9,132.5-177.4,46.8-265c-89.6-87.7-132.5-76-343,99.4
			c-304,253.3-584.7,397.6-955,491.1c-152,39-224.1,44.8-526.2,42.9c-315.7,0-370.3-5.8-541.8-52.6
			c-364.4-97.5-656.8-253.4-955-506.7c-83.8-72.1-169.6-130.6-189-130.6c-95.5,0-175.4,79.9-175.4,175.4
			c0,21.4,27.3,70.2,62.4,109.1c68.2,76,302.1,261.2,331.3,261.2c9.7,0,56.5,33.1,103.3,72.1l83.8,74.1l-79.9,78
			c-339.1,335.2-526.2,830.2-495,1303.8c52.6,787.3,598.3,1412.9,1377.9,1580.5C4996.6,4729.9,5421.4,4714.3,5600.7,4661.7z
			 M2619,752.2c198.8-95.5,307.9-276.7,309.9-506.7s-109.1-409.3-315.7-510.6c-424.9-208.5-914,177.4-802.9,633.4
			C1895.9,732.7,2283.7,917.9,2619,752.2z M8954.7,265c212.4-124.7,261.2-424.8,99.4-608c-192.9-220.2-539.8-177.3-666.5,81.9
			C8206.4,107.1,8600.1,471.6,8954.7,265z M9480.9-374.2c-33.1-241.7-152-419-350.8-522.3c-70.2-35.1-130.6-60.4-134.5-56.5
			c-5.8,5.8-15.6,44.8-21.4,87.7c-13.6,77.9-13.6,79.9,79.9,124.7c187.1,89.6,329.3,245.5,380,415.1
			C9465.4-222.2,9496.5-255.4,9480.9-374.2z M3382.9-3361.8c495-194.9,908.2-265.1,1512.3-259.2c391.7,3.9,407.3,3.9,448.2-37
			c60.4-62.4,56.5-171.5-9.7-228c-42.9-37-85.7-48.7-224.1-58.5c-245.5-21.4-736.7,1.9-1011.5,46.8
			c-376.1,62.4-953,247.5-1060.2,339.1c-54.6,44.8-70.2,128.6-37,187.1c25.3,44.8,101.3,97.4,138.4,99.4
			C3145.2-3272.2,3256.2-3313.1,3382.9-3361.8z"/>
		<path class="st0" d="M4860.2,4418.1c-485.3-111.1-867.2-458-1017.3-921.8c-99.4-306-78-695.7,52.6-976.4
			c130.6-280.7,378.1-549.6,502.8-549.6c87.7,0,132.5,27.3,157.9,97.4c27.3,83.8,7.8,124.7-148.1,282.6
			c-210.5,218.3-298.2,430.7-298.2,732.8c0,284.5,99.4,526.2,302.1,728.9c391.7,391.7,1019.3,407.3,1432.4,35.1
			c426.8-382,458-1042.7,70.1-1465.6c-87.7-95.5-109.1-130.6-109.1-185.1c0-87.7,52.6-146.2,138.4-159.8
			c64.3-11.7,81.9-3.9,161.8,70.2c124.7,115,257.2,319.6,327.4,510.6c77.9,208.5,97.4,532,46.8,760.1
			c-105.2,469.7-458,855.6-917.9,1001.7C5368.8,4441.4,5041.4,4459,4860.2,4418.1z"/>
	</g>
</g>
</svg>
