<?xml version="1.0" encoding="utf-8"?>
<!-- Generator: Adobe Illustrator 21.0.2, SVG Export Plug-In . SVG Version: 6.00 Build 0)  -->
<svg version="1.1" id="Capa_1" xmlns="http://www.w3.org/2000/svg" xmlns:xlink="http://www.w3.org/1999/xlink" x="0px" y="0px"
	 viewBox="0 0 179 158.5" style="enable-background:new 0 0 179 158.5;" xml:space="preserve">
<style type="text/css">
	.st0{fill:#0079D5;}
</style>
<g>
	<g>
		<path class="st0" d="M66.7,49.4c-3.9-0.7-6.7-2.4-8.3-5.2c-1-1.8-1.5-4.2-1.5-7.3h4.7c0.1,2.4,0.5,4.2,1.1,5.3
			c1.1,2,3.2,3.1,6.2,3.4V31.1c-3.9-0.7-6.7-1.9-8.6-3.7c-1.8-1.7-2.8-4.1-2.8-7.1c0-2.7,1-5.1,3-7.3s4.8-3.3,8.3-3.3V6.2h2.5v3.5
			c3.5,0.3,6.3,1.3,8.2,3.1c1.9,1.8,2.9,4.3,3,7.3h-4.7c-0.1-1.3-0.5-2.5-1.1-3.5c-1.1-1.8-2.9-2.7-5.4-2.8v13
			c4.1,1.2,6.9,2.2,8.4,3.3c2.4,1.7,3.6,4.1,3.6,7.4c0,4.7-1.5,8.1-4.6,10.1c-1.3,0.8-3.1,1.4-5.2,1.8c6.1,0.2,12.3,1.2,18.1,3
			c5.6-5.6,9-13.2,9-21.7C100.6,13.8,86.9,0,69.9,0C53,0,39.2,13.7,39.2,30.7c0,8.7,3.7,16.6,9.6,22.2
			C54.7,50.9,60.7,49.7,66.7,49.4z"/>
		<path class="st0" d="M64.1,24.2c1.2,1,2.8,1.7,4.8,2.1V13.7c-2.4,0.1-4,0.8-5,2.1c-1,1.3-1.5,2.7-1.5,4.2
			C62.4,21.8,63,23.2,64.1,24.2z"/>
		<path class="st0" d="M78.6,38.7c0-2.2-0.8-3.9-2.4-5.1c-0.9-0.7-2.5-1.3-4.8-1.9v14c3-0.1,5.1-1.3,6.3-3.3
			C78.3,41.4,78.6,40.1,78.6,38.7z"/>
		<path class="st0" d="M175.3,111.1c3.7-3.9,4.1-11.1,3.5-20.8c-4.4-0.3-10.9,0.4-13.2,0c-5.6-11.1-13.6-19.8-25-25
			c0.4-7.2,1.4-13.9,5.6-17.4c-10.2-0.7-18.8,6.2-24.3,12.5c-4.9-5.1-12.2-9.2-20.8-12.1l-5.3,9.5c-15.9-5.5-33.4-5.4-49.2,0.2
			l-7-9.4c0,0,0-0.1-0.1-0.1c-10.9,3.6-20.9,9.3-28.7,17.4c-5.1-0.4-4.5-10.7,2.1-9C2.1,49.6-3.8,69.6,6.5,72.2
			c-8.6,12.3-9.5,38.9,2.1,48.6c1.7,14.6,4.3,28.4,11.4,37.6h23.3c-0.6-4.7-1.2-9.8-0.7-15.3c14.2,3.2,31,4.2,47.9,2.8
			c2.6,4.3,5.1,8.7,8.3,12.6h23.1c-0.8-6.1-1.8-12.5-0.1-18.8C127.3,138.5,155.9,131.2,175.3,111.1z M143.4,80.1
			c3.2,0,5.7,2.6,5.7,5.7c0,3.1-2.6,5.7-5.7,5.7c-3.2,0-5.7-2.6-5.7-5.7C137.7,82.7,140.2,80.1,143.4,80.1z"/>
	</g>
</g>
</svg>
